<?xml version="1.0" encoding="UTF-8"?>
<svg version="1.1" xmlns="http://www.w3.org/2000/svg" width="500" height="500">
<path d="M0 0 C0.99 3.465 0.99 3.465 2 7 C3.32 6.67 4.64 6.34 6 6 C6.63440928 7.47515555 7.25690827 8.95543332 7.875 10.4375 C8.39707031 11.67306641 8.39707031 11.67306641 8.9296875 12.93359375 C10.29740548 16.85205584 11.09967332 20.94852996 12 25 C0.78 28.63 -10.44 32.26 -22 36 C-22 39.27217135 -21.73516599 41.62554456 -21 44.75 C-20.814375 45.54921875 -20.62875 46.3484375 -20.4375 47.171875 C-20.293125 47.77515625 -20.14875 48.3784375 -20 49 C-19.20303711 48.72212646 -18.40607422 48.44425293 -17.58496094 48.15795898 C-14.62084239 47.13010703 -11.65366002 46.11181356 -8.68408203 45.09985352 C-7.40054933 44.66028974 -6.11829943 44.21696119 -4.83740234 43.76977539 C-2.99399574 43.12694276 -1.14547762 42.4988278 0.703125 41.87109375 C1.81333008 41.48880615 2.92353516 41.10651855 4.06738281 40.71264648 C6.93856362 40.01492947 8.28642487 39.95787168 11 41 C11.33 42.98 11.66 44.96 12 47 C13.32 46.67 14.64 46.34 16 46 C18.88111842 51.91608298 20.78490988 57.53864094 22 64 C14.89754965 66.96731524 7.72280431 69.46423444 0.375 71.75 C-0.62917969 72.06582031 -1.63335937 72.38164062 -2.66796875 72.70703125 C-5.11091792 73.47481527 -7.55490713 74.23907632 -10 75 C-9.68712036 76.12692261 -9.68712036 76.12692261 -9.36791992 77.27661133 C-9.09568604 78.2642749 -8.82345215 79.25193848 -8.54296875 80.26953125 C-8.27250732 81.24768799 -8.0020459 82.22584473 -7.72338867 83.23364258 C-6.96382539 86.13833768 -6.40208391 89.02457905 -6 92 C-5.41476563 91.78085938 -4.82953125 91.56171875 -4.2265625 91.3359375 C1.9635293 89.0495072 8.18974328 86.87290181 14.4375 84.75 C15.21851074 84.47978027 15.99952148 84.20956055 16.80419922 83.93115234 C17.92012451 83.55531006 17.92012451 83.55531006 19.05859375 83.171875 C19.72173584 82.9459668 20.38487793 82.72005859 21.06811523 82.48730469 C23 82 23 82 27 82 C27.99 83.98 28.98 85.96 30 88 C30.99 88 31.98 88 33 88 C33.86979461 90.22414609 34.72083184 92.45272592 35.5625 94.6875 C35.9327832 95.62625977 35.9327832 95.62625977 36.31054688 96.58398438 C37.78726262 100.55655773 38.00331694 102.93488913 37 107 C29.91636242 109.33304669 22.83170237 111.66295996 15.74573231 113.98891354 C12.45522664 115.06912271 9.16507846 116.15039512 5.87573242 117.23413086 C2.09138085 118.48090297 -1.69449997 119.7229907 -5.48046875 120.96484375 C-6.65772018 121.35341049 -7.83497162 121.74197723 -9.04789734 122.14231873 C-10.14866104 122.50261673 -11.24942474 122.86291473 -12.38354492 123.23413086 C-13.34951096 123.55167831 -14.31547699 123.86922577 -15.31071472 124.19639587 C-18 125 -18 125 -20.67842102 125.47462463 C-25.11364618 126.47831999 -28.2720156 130.37443359 -31.57421875 133.359375 C-35.23717742 135.11358554 -35.62760289 135.21745079 -39.27734375 134.1796875 C-41.19507363 133.48043067 -43.10111826 132.74893 -45 132 C-46.33783851 131.50759565 -47.67705831 131.01893458 -49.01733398 130.53320312 C-53.64907766 128.84674717 -58.26247014 127.11319149 -62.875 125.375 C-65.26262476 124.47662847 -67.65060314 123.57924542 -70.0395813 122.68447876 C-71.51621374 122.13131107 -72.99206508 121.57605241 -74.4670105 121.0184021 C-77.61362535 119.83862903 -80.70807859 118.69944071 -84 118 C-86.02563885 123.46352007 -86.02563885 123.46352007 -85.20117188 129.03320312 C-83.82804381 131.06040135 -82.35046078 132.8970325 -80.75 134.75 C-80.20311523 135.42740234 -79.65623047 136.10480469 -79.09277344 136.80273438 C-77.96681944 138.19664847 -76.83033206 139.58211831 -75.68359375 140.95898438 C-73.1161918 144.07143802 -70.68967321 147.28725422 -68.25 150.5 C-66.83637149 152.33570214 -65.41810824 154.16775396 -64 156 C-67.39275439 159.46048633 -70.86671905 162.73949739 -74.5625 165.875 C-75.49191406 166.67679688 -76.42132813 167.47859375 -77.37890625 168.3046875 C-80 170 -80 170 -82.23046875 169.84765625 C-84.31272174 168.85019731 -85.55913018 167.80108727 -87 166 C-87 165.34 -87 164.68 -87 164 C-87.55945313 163.79375 -88.11890625 163.5875 -88.6953125 163.375 C-91.8383336 161.49984165 -93.71061591 158.8795927 -95.875 156 C-96.8502136 154.73043279 -97.82547646 153.46090341 -98.80078125 152.19140625 C-99.31721191 151.51352051 -99.83364258 150.83563477 -100.36572266 150.13720703 C-102.64538212 147.1560091 -104.95595016 144.19931592 -107.26513672 141.2409668 C-113.54762695 133.18944611 -119.78227289 125.10157489 -126 117 C-127.24702913 115.37797281 -128.4945413 113.75631822 -129.7421875 112.13476562 C-130.98983359 110.51321317 -132.23710572 108.89137354 -133.484375 107.26953125 C-135.63947097 104.46773786 -137.79712968 101.66792857 -139.95581055 98.86889648 C-141.21497975 97.23299792 -142.46889162 95.59316698 -143.72265625 93.953125 C-145.12542808 92.13409327 -146.54628124 90.32864067 -147.99609375 88.546875 C-148.83333984 87.50273437 -148.83333984 87.50273437 -149.6875 86.4375 C-150.16574219 85.85871094 -150.64398438 85.27992188 -151.13671875 84.68359375 C-152 83 -152 83 -152.0390625 81.10546875 C-150.41293008 77.81041096 -147.58541034 75.99572917 -144.6875 73.875 C-144.10548828 73.43285156 -143.52347656 72.99070312 -142.92382812 72.53515625 C-140.06689393 70.39326448 -137.27574273 68.43970915 -134 67 C-132.86067708 68.39973958 -131.72135417 69.79947917 -130.58203125 71.19921875 C-128.94817052 73.11046095 -128.94817052 73.11046095 -126.76953125 75.140625 C-123.14736758 78.88029186 -120.0399829 82.93469599 -116.875 87.0625 C-116.25496094 87.86494141 -115.63492188 88.66738281 -114.99609375 89.49414062 C-112.30683784 92.97860662 -109.63564384 96.47476456 -107 100 C-107.00523682 99.40501709 -107.01047363 98.81003418 -107.01586914 98.19702148 C-107.0548271 92.99391496 -107.05570442 87.79299296 -107.01953125 82.58984375 C-106.98871644 78.00206234 -107.02744019 73.42648756 -107.15135193 68.84107971 C-107.21485937 66.07191617 -107.22735668 63.30378833 -107.23092651 60.53396606 C-107.24964338 58.53802973 -107.32944218 56.54296558 -107.41040039 54.54858398 C-107.38091783 48.93197503 -107.32896905 45.42374438 -103.39135742 41.20532227 C-100.44231986 38.83819106 -97.25801613 36.9156507 -94 35 C-92.59301855 33.99458736 -91.194707 32.97670892 -89.8125 31.9375 C-87 30 -87 30 -86 30 C-85.505 34.95 -85.505 34.95 -85 40 C-83.68 39.01 -82.36 38.02 -81 37 C-80.34 37 -79.68 37 -79 37 C-78.87940356 55.03380548 -79.05478506 72.9844064 -80 91 C-79.09025925 91.26264397 -79.09025925 91.26264397 -78.16213989 91.53059387 C-72.03703412 93.32918933 -66.04080409 95.36010381 -60.0546875 97.57421875 C-58.71085495 98.0672625 -58.71085495 98.0672625 -57.33987427 98.57026672 C-54.51722733 99.60658812 -51.69609677 100.64696713 -48.875 101.6875 C-46.94541191 102.39675488 -45.01572525 103.10574168 -43.0859375 103.81445312 C-38.38948141 105.53987581 -33.69437941 107.26893567 -29 109 C-29.52284828 107.41932487 -29.52284828 107.41932487 -30.05625916 105.80671692 C-33.34070908 95.87588404 -36.62207629 85.94403726 -39.90042782 76.01118946 C-41.5859585 70.90465081 -43.27257338 65.79847562 -44.96166992 60.69311523 C-46.59168231 55.76620514 -48.21884156 50.83836126 -49.84402657 45.9098568 C-50.46457959 44.02966458 -51.08616009 42.14981116 -51.7087841 40.27030373 C-52.58063225 37.637879 -53.44882032 35.00427367 -54.31616211 32.37036133 C-54.57438751 31.59352493 -54.83261292 30.81668854 -55.09866333 30.01631165 C-56.29730344 26.3639245 -57.36102535 22.80171579 -58 19 C-51.09691882 16.14238347 -44.13689832 13.63192946 -37.03125 11.328125 C-35.52806213 10.83720367 -35.52806213 10.83720367 -33.99450684 10.33636475 C-31.89758453 9.65246474 -29.80012442 8.97021161 -27.70214844 8.28955078 C-24.47954993 7.24336106 -21.25922321 6.19038506 -18.0390625 5.13671875 C-15.9949228 4.47095142 -13.9506565 3.80557262 -11.90625 3.140625 C-10.94174927 2.82506653 -9.97724854 2.50950806 -8.98352051 2.18438721 C-7.65073059 1.75328644 -7.65073059 1.75328644 -6.29101562 1.31347656 C-5.50843384 1.05906799 -4.72585205 0.80465942 -3.91955566 0.5425415 C-2 0 -2 0 0 0 Z " fill="#010101" transform="translate(186,72)"/>
<path d="M0 0 C4.87048118 2.32138609 9.22255632 5.36522357 13.6875 8.375 C14.56728516 8.9525 15.44707031 9.53 16.35351562 10.125 C17.18947266 10.68960938 18.02542969 11.25421875 18.88671875 11.8359375 C19.65201904 12.34688965 20.41731934 12.8578418 21.20581055 13.38427734 C23.27669358 15.24917106 23.48219342 16.33074357 24 19 C25.9001177 20.24174796 25.9001177 20.24174796 28 21 C28.66 21.33 29.32 21.66 30 22 C29.38904702 36.00398076 28.26736709 49.92248751 26.9375 63.875 C26.65721879 66.83424808 26.37809601 69.79359078 26.10169983 72.75320435 C25.93158845 74.57315126 25.75922096 76.39288922 25.58421326 78.21237183 C25.21418541 82.15653948 24.89095572 86.03281704 25 90 C25.53173828 89.12214844 25.53173828 89.12214844 26.07421875 88.2265625 C30.37958295 81.2837718 35.05085591 74.66931278 39.86767578 68.07470703 C42.75002127 64.12605077 45.5968417 60.16108009 48.3671875 56.1328125 C48.90448486 55.35502441 49.44178223 54.57723633 49.99536133 53.77587891 C51.01793653 52.29084291 52.03373884 50.80111368 53.04174805 49.30615234 C53.50363525 48.63793457 53.96552246 47.9697168 54.44140625 47.28125 C54.84045166 46.69408203 55.23949707 46.10691406 55.65063477 45.50195312 C57.24591483 43.72627682 58.82433719 42.93989095 61 42 C63.5115113 43.75494078 66.0069614 45.53143729 68.5 47.3125 C69.21542969 47.81201172 69.93085938 48.31152344 70.66796875 48.82617188 C71.34472656 49.31279297 72.02148438 49.79941406 72.71875 50.30078125 C73.34716797 50.74591064 73.97558594 51.19104004 74.62304688 51.6496582 C75.07744141 52.095271 75.53183594 52.54088379 76 53 C76 53.99 76 54.98 76 56 C76.78375 56.268125 77.5675 56.53625 78.375 56.8125 C81 58 81 58 83 61 C82.22398437 62.06734375 81.44796875 63.1346875 80.6484375 64.234375 C72.8775237 74.94570035 65.24821287 85.74882246 57.67578125 96.60107422 C46.30916545 112.87268944 34.69300693 128.96185756 23 145 C19.76509616 144.38208688 17.65795295 143.26739817 14.99609375 141.34765625 C14.25552734 140.81849609 13.51496094 140.28933594 12.75195312 139.74414062 C11.98818359 139.18919922 11.22441406 138.63425781 10.4375 138.0625 C8.91549198 136.9698746 7.39336145 135.87741982 5.87109375 134.78515625 C5.20005615 134.29926025 4.52901855 133.81336426 3.83764648 133.31274414 C2.24734329 132.17669255 0.62615869 131.0841058 -1 130 C-1.33 129.01 -1.66 128.02 -2 127 C-3.95597184 125.60287726 -5.95436401 124.26220093 -8 123 C-7.88930176 121.75726318 -7.77860352 120.51452637 -7.66455078 119.23413086 C-4.80050935 87.11985786 -4.80050935 87.11985786 -2 55 C-2.65484375 55.95777344 -3.3096875 56.91554687 -3.984375 57.90234375 C-14.40617018 73.11947903 -25.03390026 88.16986118 -36 103 C-40.2078288 102.39590577 -43.34247995 99.9915414 -46.75 97.625 C-47.35199219 97.22539062 -47.95398438 96.82578125 -48.57421875 96.4140625 C-50.1082465 95.35659213 -51.56186569 94.1845904 -53 93 C-53 92.01 -53 91.02 -53 90 C-54.175625 89.62875 -54.175625 89.62875 -55.375 89.25 C-58.3916501 87.81349995 -58.71565565 86.95279169 -60 84 C-59.67427002 83.55422607 -59.34854004 83.10845215 -59.01293945 82.64916992 C-52.67127856 73.95579595 -46.41628365 65.21784006 -40.375 56.3125 C-36.1165824 50.0390063 -31.75857159 43.86635452 -27.23828125 37.77929688 C-23.35024601 32.52595446 -19.60686395 27.17758445 -15.875 21.8125 C-10.73203138 14.42188954 -5.48584339 7.14030409 0 0 Z " fill="#010101" transform="translate(392,97)"/>
<path d="M0 0 C4.04877658 3.83529564 7.3370103 7.94217612 10.625 12.4375 C14.55494794 17.74542627 18.52753605 23.00763182 22.625 28.1875 C29.31594927 36.65746302 35.91396441 45.19071793 42.36328125 53.84643555 C47.41610381 60.62678158 52.56676668 67.30496531 57.90380859 73.86474609 C61.09890716 77.80614505 64.08472528 81.84665942 67 86 C64.7922594 91.24212709 60.51132268 93.91121223 56.125 97.3125 C55.30902344 97.97056641 54.49304688 98.62863281 53.65234375 99.30664062 C52.86214844 99.92345703 52.07195312 100.54027344 51.2578125 101.17578125 C50.5373877 101.74208252 49.81696289 102.30838379 49.07470703 102.8918457 C47 104 47 104 44.86865234 103.82519531 C41.82444594 102.48087631 40.45109337 100.08773516 38.5 97.4375 C34.57834222 92.11689059 30.62522634 86.82054215 26.65625 81.53515625 C26.1087207 80.80558716 25.56119141 80.07601807 24.99707031 79.32434082 C23.66494546 77.54938625 22.33258543 75.77460878 21 74 C21.02300171 74.61228455 21.04600342 75.22456909 21.06970215 75.85540771 C21.29496738 82.28082328 21.40528144 88.7012304 21.45166016 95.13037109 C21.48360729 97.52253389 21.54398279 99.91450425 21.63427734 102.30517578 C22.33574053 121.63169586 22.33574053 121.63169586 18.44406128 127.24377441 C14.74457353 130.95910491 10.54702304 133.54863806 5.91648865 135.95367432 C3.22043163 137.42561296 0.91898053 139.29120023 -1.4375 141.25 C-4.88809524 144 -4.88809524 144 -6 144 C-6.02318164 136.376446 -6.0409448 128.75289566 -6.05181217 121.12931442 C-6.05702825 117.58928939 -6.06410276 114.04928849 -6.07543945 110.50927734 C-6.08839423 106.43847422 -6.09323876 102.36769641 -6.09765625 98.296875 C-6.10281754 97.02696716 -6.10797882 95.75705933 -6.11329651 94.44866943 C-6.11337204 93.26774719 -6.11344757 92.08682495 -6.11352539 90.87011719 C-6.115746 89.83087097 -6.11796661 88.79162476 -6.12025452 87.72088623 C-6.01374985 85.31110502 -5.69407081 83.29963193 -5 81 C-5.58595947 80.86029785 -6.17191895 80.7205957 -6.77563477 80.57666016 C-16.08764579 78.20652062 -24.9657735 74.77434592 -33.9375 71.375 C-36.31831159 70.47638042 -38.69964884 69.57921016 -41.08192444 68.68447876 C-42.55310407 68.13159956 -44.02339825 67.57635665 -45.49266052 67.0184021 C-48.63063893 65.83615592 -51.71486607 64.69699038 -55 64 C-51.48781931 76.20629949 -47.69857961 88.30342874 -43.75 100.375 C-43.17928329 102.12714513 -42.60872856 103.87934304 -42.03833008 105.6315918 C-39.44183254 113.59730042 -36.82566605 121.55581347 -34.15234375 129.49609375 C-33.73178711 130.74664551 -33.31123047 131.99719727 -32.87792969 133.28564453 C-32.10313332 135.58111383 -31.32405732 137.87514452 -30.54003906 140.16748047 C-30.20069336 141.17053223 -29.86134766 142.17358398 -29.51171875 143.20703125 C-29.21740967 144.0678833 -28.92310059 144.92873535 -28.61987305 145.81567383 C-28 148 -28 148 -28 151 C-61.60457647 162.62977627 -61.60457647 162.62977627 -77.5 167.75 C-78.52988037 168.08451172 -79.55976074 168.41902344 -80.62084961 168.76367188 C-81.56065674 169.06337891 -82.50046387 169.36308594 -83.46875 169.671875 C-84.27763672 169.9306543 -85.08652344 170.18943359 -85.91992188 170.45605469 C-88 171 -88 171 -91 171 C-92.17152378 167.54329268 -93.33639077 164.08437878 -94.5 160.625 C-94.83386719 159.64015625 -95.16773438 158.6553125 -95.51171875 157.640625 C-95.82753906 156.69960938 -96.14335937 155.75859375 -96.46875 154.7890625 C-96.76201172 153.91975098 -97.05527344 153.05043945 -97.35742188 152.15478516 C-98 150 -98 150 -98 148 C-86.45 144.04 -74.9 140.08 -63 136 C-64.98 130.06 -64.98 130.06 -67 124 C-67 123.01 -67 122.02 -67 121 C-83.335 126.445 -83.335 126.445 -100 132 C-102.17142404 129.82857596 -102.60299758 128.63267023 -103.5078125 125.75390625 C-103.77207031 124.91666016 -104.03632813 124.07941406 -104.30859375 123.21679688 C-104.57800781 122.34087891 -104.84742188 121.46496094 -105.125 120.5625 C-105.40214844 119.69044922 -105.67929687 118.81839844 -105.96484375 117.91992188 C-108 111.39839901 -108 111.39839901 -108 108 C-103.78439669 106.57007953 -99.56685358 105.14608199 -95.34741211 103.72753906 C-93.91229357 103.24413754 -92.47771771 102.75912183 -91.04370117 102.27246094 C-88.98236386 101.57321879 -86.91914458 100.87980523 -84.85546875 100.1875 C-83.61434326 99.76855469 -82.37321777 99.34960938 -81.09448242 98.91796875 C-78 98 -78 98 -75 98 C-77.31 91.73 -79.62 85.46 -82 79 C-85.64675781 80.20849609 -85.64675781 80.20849609 -89.3671875 81.44140625 C-91.71637743 82.21427322 -94.06639247 82.98457903 -96.41650391 83.75463867 C-98.0528027 84.29232613 -99.68822668 84.83268333 -101.32275391 85.37573242 C-103.66866279 86.1546197 -106.01752227 86.92393707 -108.3671875 87.69140625 C-109.10057343 87.93717911 -109.83395935 88.18295197 -110.58956909 88.43617249 C-115.77225659 90.11387171 -115.77225659 90.11387171 -118 89 C-118.86962891 86.86694336 -118.86962891 86.86694336 -119.7265625 84.08984375 C-120.0359375 83.10048828 -120.3453125 82.11113281 -120.6640625 81.09179688 C-120.98117187 80.05087891 -121.29828125 79.00996094 -121.625 77.9375 C-121.94984375 76.89271484 -122.2746875 75.84792969 -122.609375 74.77148438 C-123.41309814 72.18302309 -124.20962689 69.5925628 -125 67 C-118.13823848 63.7481966 -111.14036158 61.26238887 -103.921875 58.92578125 C-102.79227356 58.55647995 -101.66267212 58.18717865 -100.49884033 57.8066864 C-98.12627417 57.03216786 -95.75294871 56.25997177 -93.37890625 55.48999023 C-89.74546076 54.31102713 -86.11477212 53.1238596 -82.484375 51.93554688 C-80.17203285 51.18180723 -77.85953807 50.42853564 -75.546875 49.67578125 C-74.46347839 49.32163651 -73.38008179 48.96749176 -72.26385498 48.60261536 C-70.74637665 48.11156563 -70.74637665 48.11156563 -69.19824219 47.6105957 C-68.31271667 47.32287796 -67.42719116 47.03516022 -66.51483154 46.73872375 C-64 46 -64 46 -61.33624268 45.51921082 C-57.15575557 44.59013177 -54.28066628 41.27330045 -51.109375 38.51953125 C-46.62638235 36.32872203 -43.50084452 37.47790656 -39 39 C-34.14887006 40.6971367 -29.35295095 42.51614647 -24.5625 44.375 C-23.29123025 44.86253917 -22.01974685 45.34952164 -20.74804688 45.8359375 C-13.80775985 48.49664489 -6.89119595 51.2146033 0 54 C0.47552383 49.67605072 0.33598175 46.94611679 -2.2734375 43.4921875 C-3.29083803 42.27254271 -4.32568703 41.06730011 -5.375 39.875 C-6.4726108 38.57006637 -7.56894096 37.26405461 -8.6640625 35.95703125 C-9.4979248 34.97597412 -9.4979248 34.97597412 -10.34863281 33.97509766 C-12.91118302 30.91019062 -15.33226637 27.74204614 -17.75 24.5625 C-18.57808188 23.48043575 -19.4062025 22.39840114 -20.234375 21.31640625 C-20.81703125 20.55199219 -21.3996875 19.78757812 -22 19 C-20.56772467 15.57069418 -18.87336506 13.82826575 -15.9375 11.58203125 C-15.14085937 10.96779297 -14.34421875 10.35355469 -13.5234375 9.72070312 C-12.27433594 8.77614258 -12.27433594 8.77614258 -11 7.8125 C-9.75089844 6.85053711 -9.75089844 6.85053711 -8.4765625 5.86914062 C-2.34968655 1.17484328 -2.34968655 1.17484328 0 0 Z M-8.1875 14 C-9.53908203 15.11375 -9.53908203 15.11375 -10.91796875 16.25 C-11.60503906 16.8275 -12.29210937 17.405 -13 18 C-10.29913406 22.84425778 -6.94521752 27.12325488 -3.5625 31.5 C-2.98951172 32.24636719 -2.41652344 32.99273437 -1.82617188 33.76171875 C-1.26607422 34.49003906 -0.70597656 35.21835937 -0.12890625 35.96875 C0.40831055 36.66838867 0.94552734 37.36802734 1.49902344 38.08886719 C2.76021481 39.6946912 4.08256915 41.25221246 5.41796875 42.796875 C7 45 7 45 6.875 48.75 C6.61321048 50.17249082 6.31945985 51.58934083 6 53 C5.82742676 53.78665039 5.65485352 54.57330078 5.47705078 55.38378906 C5.30157715 56.16979492 5.12610352 56.95580078 4.9453125 57.765625 C4.76758301 58.56258789 4.58985352 59.35955078 4.40673828 60.18066406 C4.27251465 60.78104492 4.13829102 61.38142578 4 62 C2.35970825 61.39526855 2.35970825 61.39526855 0.6862793 60.77832031 C-3.41942531 59.26473065 -7.52524772 57.75146074 -11.63110352 56.23828125 C-13.39903869 55.58667408 -15.16694305 54.93498329 -16.93481445 54.28320312 C-17.78970459 53.96802734 -18.64459473 53.65285156 -19.52539062 53.328125 C-20.37068329 53.01629272 -21.21597595 52.70446045 -22.08688354 52.38317871 C-23.7634752 51.76596778 -25.44081863 51.15079492 -27.118927 50.53771973 C-30.61307027 49.25996307 -34.08907647 47.96441359 -37.54443359 46.58398438 C-38.5133252 46.20048828 -39.4822168 45.81699219 -40.48046875 45.421875 C-41.67579224 44.9283252 -41.67579224 44.9283252 -42.89526367 44.42480469 C-45.6376522 43.87130091 -46.68356892 44.50748989 -49 46 C-50.77656574 47.3404996 -52.52549007 48.71816295 -54.25 50.125 C-55.14203125 50.84945312 -56.0340625 51.57390625 -56.953125 52.3203125 C-57.96632813 53.15175781 -57.96632813 53.15175781 -59 54 C-55.77488267 56.71573331 -52.64427695 58.01335225 -48.671875 59.3828125 C-48.04637756 59.60137909 -47.42088013 59.81994568 -46.77642822 60.0451355 C-44.76988225 60.74515466 -42.76023851 61.43566441 -40.75 62.125 C-27.07093799 66.84865467 -13.5592952 71.9152643 0 77 C0 94.82 0 112.64 0 131 C1.98 129.68 3.96 128.36 6 127 C7.03060547 126.45666016 7.03060547 126.45666016 8.08203125 125.90234375 C10.10865534 124.77237501 11.4520654 123.74224914 13 122 C13.60089105 119.64932385 13.60089105 119.64932385 13.69091797 117.00415039 C13.75349792 116.02189484 13.81607788 115.03963928 13.8805542 114.02761841 C14.06518318 109.3477878 14.14289862 104.67943979 14.1328125 99.99609375 C14.13424759 98.49019432 14.13424759 98.49019432 14.13571167 96.95387268 C14.13638692 94.84888648 14.13457879 92.74389812 14.13037109 90.63891602 C14.12500784 87.44217193 14.13034146 84.24556796 14.13671875 81.04882812 C14.13605796 78.98958303 14.13477679 76.93033802 14.1328125 74.87109375 C14.13584885 73.45817299 14.13584885 73.45817299 14.13894653 72.01670837 C14.11783017 65.9560091 13.71368027 60.01836452 13 54 C13.66 54 14.32 54 15 54 C15.27150879 54.58233398 15.54301758 55.16466797 15.82275391 55.76464844 C16.99170282 57.98424534 18.28103056 59.801057 19.8359375 61.765625 C20.68224731 62.84251587 20.68224731 62.84251587 21.5456543 63.94116211 C22.14933838 64.70307861 22.75302246 65.46499512 23.375 66.25 C28.74505616 73.08036521 34.02178969 79.96749277 39.17919922 86.95996094 C41.3096343 89.83086575 43.42962599 92.51712016 46 95 C49.03852705 93.59023295 51.5939595 91.91129772 54.25 89.875 C54.95640625 89.33617187 55.6628125 88.79734375 56.390625 88.2421875 C56.92171875 87.83226562 57.4528125 87.42234375 58 87 C56.58397689 82.77476975 54.54649988 80.02973368 51.625 76.6875 C47.55706652 71.94682752 43.72515984 67.07672336 40 62.0625 C39.49146484 61.37873291 38.98292969 60.69496582 38.45898438 59.99047852 C37.44869767 58.6316558 36.43860289 57.27269035 35.42871094 55.91357422 C28.82488983 47.06860671 21.99344409 38.38933716 15.1965332 29.69238281 C12.42416037 26.14100556 9.67228134 22.57971313 6.98828125 18.9609375 C6.53259766 18.35121094 6.07691406 17.74148438 5.60742188 17.11328125 C4.39399255 15.48439422 3.19075989 13.84792522 1.98828125 12.2109375 C1.33214844 11.48132813 0.67601562 10.75171875 0 10 C-3.99282941 10 -5.15331592 11.47808076 -8.1875 14 Z M-83.28515625 58.671875 C-84.69769936 59.14648163 -84.69769936 59.14648163 -86.13877869 59.63067627 C-89.12428766 60.64128746 -92.09255946 61.6946203 -95.0625 62.75 C-97.09211365 63.44558997 -99.12270643 64.13832994 -101.15429688 64.828125 C-106.11467342 66.51926056 -111.06164915 68.24565464 -116 70 C-115.896875 71.2375 -115.79375 72.475 -115.6875 73.75 C-115.62949219 74.44609375 -115.57148438 75.1421875 -115.51171875 75.859375 C-115.02634369 78.51703845 -115.02634369 78.51703845 -112 82 C-100.78 78.37 -89.56 74.74 -78 71 C-73.5 82.25 -73.5 82.25 -72.078125 86.5703125 C-71.77519531 87.48554688 -71.47226562 88.40078125 -71.16015625 89.34375 C-70.85980469 90.2615625 -70.55945313 91.179375 -70.25 92.125 C-69.77626953 93.55972656 -69.77626953 93.55972656 -69.29296875 95.0234375 C-68.52584571 97.34805276 -67.76156718 99.67355994 -67 102 C-67.98770386 102.26067261 -67.98770386 102.26067261 -68.99536133 102.52661133 C-75.95850531 104.3913343 -82.82778396 106.47483738 -89.6875 108.6875 C-90.68716797 109.00783203 -91.68683594 109.32816406 -92.71679688 109.65820312 C-95.14521772 110.4366921 -97.57292982 111.21731242 -100 112 C-99.69078116 113.45903258 -99.37751201 114.91720722 -99.0625 116.375 C-98.88847656 117.18710937 -98.71445312 117.99921875 -98.53515625 118.8359375 C-98.07669307 121.029463 -98.07669307 121.029463 -97 123 C-89.18354338 121.68886656 -81.86020171 119.44889075 -74.375 116.875 C-73.27542969 116.50246094 -72.17585938 116.12992188 -71.04296875 115.74609375 C-68.36005 114.83623435 -65.67918301 113.92078919 -63 113 C-62.84144531 113.6084375 -62.68289063 114.216875 -62.51953125 114.84375 C-60.25963612 123.33396375 -57.62953985 131.58547248 -55 140 C-72.325 145.94 -72.325 145.94 -90 152 C-89.01 155.63 -88.02 159.26 -87 163 C-80.66506885 161.68149416 -74.58417182 160.01995724 -68.44140625 157.99609375 C-67.57104233 157.71274673 -66.70067841 157.42939972 -65.80393982 157.13746643 C-63.98233665 156.54356929 -62.16138377 155.94767414 -60.34106445 155.34985352 C-57.54719693 154.43247517 -54.75133288 153.52140107 -51.95507812 152.61132812 C-50.17956903 152.03161271 -48.40417419 151.45154723 -46.62890625 150.87109375 C-45.79251114 150.59817001 -44.95611603 150.32524628 -44.09437561 150.04405212 C-39.96885239 148.71923171 -39.96885239 148.71923171 -36 147 C-37.90574691 139.8295757 -39.96530137 132.73130197 -42.22265625 125.6640625 C-42.52428177 124.71375656 -42.82590729 123.76345062 -43.13667297 122.78434753 C-45.78151527 114.46678766 -48.46173775 106.16055261 -51.1506958 97.85716248 C-52.88156655 92.50484189 -54.58354135 87.14606967 -56.22929382 81.76696777 C-56.86911318 79.6880575 -57.52359353 77.61451559 -58.18530273 75.54248047 C-58.95500436 73.12928503 -59.69977776 70.70793518 -60.41430664 68.27783203 C-60.75969482 67.22321777 -61.10508301 66.16860352 -61.4609375 65.08203125 C-61.87545166 63.73975464 -61.87545166 63.73975464 -62.29833984 62.37036133 C-67.82699482 54.66911152 -75.37006238 55.77822791 -83.28515625 58.671875 Z " fill="#010101" transform="translate(403,260)"/>
<path d="M0 0 C7.59 0 15.18 0 23 0 C23.66 2.31 24.32 4.62 25 7 C26.65 7 28.3 7 30 7 C35.19359444 23.52126884 40.08643105 40.10782847 44.76123047 56.7824707 C44.96961044 57.52116394 45.17799042 58.25985718 45.39268494 59.02093506 C45.78676731 60.41804651 46.17813495 61.81592734 46.56642151 63.21466064 C47.28422975 66.36893482 47.28422975 66.36893482 49 69 C49.30591064 68.07703125 49.61182129 67.1540625 49.92700195 66.203125 C57.15010882 44.42156671 64.49131467 22.68479686 72 1 C77.92304836 0.95204549 83.78409359 0.94438528 89.6875 1.5 C90.70199219 1.5928125 91.71648437 1.685625 92.76171875 1.78125 C93.86966797 1.88953125 93.86966797 1.88953125 95 2 C94.67 3.98 94.34 5.96 94 8 C96.64 8 99.28 8 102 8 C101.29407117 12.17427386 100.01680872 16.04876052 98.578125 20.015625 C98.32562485 20.71997681 98.07312469 21.42432861 97.81297302 22.15002441 C96.96247355 24.51807863 96.10640574 26.88407591 95.25 29.25 C94.64422065 30.93129116 94.03850967 32.61260696 93.43286133 34.29394531 C86.66502258 53.04438265 79.75424207 71.74306546 72.84667969 90.44238281 C72.40034683 91.65083862 71.95401398 92.85929443 71.49415588 94.10437012 C70.64907504 96.3917495 69.80350624 98.67894868 68.9573822 100.96594238 C68.58174637 101.98232788 68.20611053 102.99871338 67.8190918 104.04589844 C67.49047653 104.93420349 67.16186127 105.82250854 66.82328796 106.73773193 C66.18843834 108.48220058 65.58704386 110.23886843 65 112 C56.42 112 47.84 112 39 112 C38.505 108.535 38.505 108.535 38 105 C36.35 105 34.7 105 33 105 C30.15306149 97.70293144 27.79499752 90.26516373 25.4296875 82.80078125 C24.98486229 81.40190389 24.53988209 80.00307581 24.09475708 78.60429382 C23.16052474 75.6670205 22.22767171 72.72931407 21.29589844 69.79125977 C20.13164477 66.12027326 18.96478843 62.45012129 17.79699326 58.78026009 C13.30656517 44.66726724 8.8355504 30.54796106 4.42313004 16.41036034 C3.8327018 14.52013251 3.239727 12.63070072 2.646698 10.74128723 C2.29680817 9.61647446 1.94691833 8.49166168 1.58642578 7.33276367 C1.27859161 6.34668625 0.97075745 5.36060883 0.65359497 4.34465027 C0 2 0 2 0 0 Z " fill="#010101" transform="translate(210,66)"/>
<path d="M0 0 C8.10608714 4.1241496 15.18491331 9.38651358 22.42529297 14.8425293 C23.91822749 15.93989404 25.45833343 16.97222229 27 18 C28.27536147 27.35282293 26.58162065 37.33784932 25.6875 46.70703125 C25.55246097 48.16813972 25.41794942 49.62929702 25.28393555 51.09049988 C24.9340605 54.89007794 24.57714467 58.68896087 24.21862793 62.48773193 C23.85233442 66.38269385 23.49288372 70.27828695 23.1328125 74.17382812 C22.42847335 81.78317672 21.71667566 89.3918023 21 97 C21.46715424 96.26181534 21.93430847 95.52363068 22.4156189 94.76307678 C23.03562775 93.78559982 23.6556366 92.80812286 24.29443359 91.80102539 C24.90596283 90.83596573 25.51749207 89.87090607 26.14755249 88.87660217 C28.86680325 84.65397097 31.73023984 80.54098762 34.625 76.4375 C35.51807861 75.16592041 35.51807861 75.16592041 36.42919922 73.86865234 C41.14185519 67.17551296 45.9177569 60.52876532 50.73681641 53.91186523 C53.58407128 49.99654701 56.34681445 46.049599 59 42 C63.01095112 43.40709678 66.04675516 45.32592941 69.4375 47.875 C73.23207984 50.69529583 77.03422497 53.42760538 81 56 C79.37081822 61.10879224 76.27908835 64.99709152 73.125 69.25 C71.93926955 70.8691808 70.75439269 72.488987 69.5703125 74.109375 C68.9712207 74.92728516 68.37212891 75.74519531 67.75488281 76.58789062 C65.12925716 80.19684741 62.56290698 83.84636649 60 87.5 C55.8611521 93.39024128 51.66684385 99.23694205 47.4375 105.0625 C42.90442887 111.3124911 38.46993394 117.61930555 34.11767578 123.99633789 C28.83622472 131.72829684 23.41637993 139.36224261 18 147 C12.02191219 143.84187886 6.51537605 140.38855597 1.125 136.3125 C-0.16371699 135.34979773 -1.45276667 134.38754061 -2.7421875 133.42578125 C-3.57532471 132.79796753 -3.57532471 132.79796753 -4.42529297 132.1574707 C-5.91822749 131.06010596 -7.45833343 130.02777771 -9 129 C-10.33408293 120.06361333 -8.54004485 110.35833843 -7.6875 101.390625 C-7.55250138 99.92808351 -7.41798878 98.46549709 -7.28393555 97.00286865 C-6.93365382 93.19509679 -6.57687286 89.38796241 -6.21862793 85.58093262 C-5.85267991 81.67932599 -5.49302951 77.77713916 -5.1328125 73.875 C-4.42795752 66.24942602 -3.71621972 58.62451588 -3 51 C-3.72590332 52.05783691 -4.45180664 53.11567383 -5.19970703 54.20556641 C-15.23702256 68.82470591 -15.23702256 68.82470591 -19.875 75.375 C-20.35694824 76.0570752 -20.83889648 76.73915039 -21.33544922 77.44189453 C-25.78532366 83.72532826 -30.29109214 89.9682263 -34.81201172 96.20068359 C-35.33037598 96.91562988 -35.84874023 97.63057617 -36.3828125 98.3671875 C-36.84059082 98.99737793 -37.29836914 99.62756836 -37.77001953 100.27685547 C-38.87812807 101.82926318 -39.94200855 103.41301282 -41 105 C-45.01095112 103.59290322 -48.04675516 101.67407059 -51.4375 99.125 C-55.23207984 96.30470417 -59.03422497 93.57239462 -63 91 C-61.38098208 85.9553771 -58.36968223 82.1373539 -55.25 77.9375 C-54.06636045 76.32260165 -52.8841176 74.70667885 -51.703125 73.08984375 C-51.09146484 72.25308105 -50.47980469 71.41631836 -49.84960938 70.55419922 C-46.84625151 66.40674278 -43.92386354 62.20369396 -41 58 C-36.49845718 51.53773524 -31.94202238 45.12119322 -27.3125 38.75 C-22.76900284 32.49508472 -18.33366927 26.17795643 -13.9765625 19.79199219 C-9.41948241 13.1215325 -4.72145791 6.55473549 0 0 Z M2 9 C-4.81643979 18.21829554 -11.51193128 27.51168473 -18.10546875 36.890625 C-20.67560791 40.54555765 -23.27069738 44.18187122 -25.875 47.8125 C-35.39600347 61.10450649 -44.71649316 74.54137104 -54 88 C-51.57603779 90.55266817 -49.35171311 92.57984679 -46.25 94.25 C-44.64125 95.11625 -44.64125 95.11625 -43 96 C-36.94720766 88.16421457 -31.28737201 80.10952017 -25.72753906 71.91821289 C-22.90581189 67.76674884 -20.05736202 63.65456756 -17.0625 59.625 C-10.69315079 50.99955301 -4.90862104 41.94388863 1 33 C2.32 33.33 3.64 33.66 5 34 C4.84633217 35.64038239 4.84633217 35.64038239 4.68955994 37.31390381 C3.72562293 47.6133113 2.76880476 57.91335851 1.8189764 68.214077 C1.33041567 73.50992175 0.83933807 78.80550806 0.3425293 84.10058594 C-0.13670537 89.20934708 -0.60935575 94.31867828 -1.07742119 99.42847443 C-1.25727759 101.37915105 -1.43951703 103.32960945 -1.62416267 105.27983856 C-1.88211216 108.00861314 -2.13162534 110.73803634 -2.37915039 113.46777344 C-2.49675217 114.68049927 -2.49675217 114.68049927 -2.61672974 115.91772461 C-2.93523178 119.5208474 -3.13094375 122.55041796 -2 126 C-0.47188574 127.53734836 -0.47188574 127.53734836 1.4921875 128.796875 C2.19730469 129.28027344 2.90242188 129.76367188 3.62890625 130.26171875 C4.37011719 130.75285156 5.11132812 131.24398437 5.875 131.75 C6.60847656 132.25660156 7.34195313 132.76320313 8.09765625 133.28515625 C12.17431482 136.22859765 12.17431482 136.22859765 17 137 C18.92774604 134.58266767 20.6576138 132.18674223 22.375 129.625 C23.45587244 128.0512868 24.53794265 126.47839572 25.62109375 124.90625 C26.45809814 123.68421875 26.45809814 123.68421875 27.31201172 122.4375 C29.95598389 118.61953382 32.69938455 114.87569528 35.4375 111.125 C40.45831028 104.21407291 45.31211919 97.20277884 50.10498047 90.13232422 C54.49908124 83.67244965 59.04739213 77.33416655 63.6875 71.04882812 C66.77548345 66.83329856 69.49573463 62.58815046 72 58 C68.37 55.69 64.74 53.38 61 51 C57.22855938 56.21380976 53.4607838 61.43023481 49.69677734 66.64941406 C48.24442969 68.66138575 46.78880766 70.67092281 45.33203125 72.6796875 C35.38355873 86.44464304 26.11930466 100.6762437 17 115 C15.35 114.34 13.7 113.68 12 113 C12.33 112.34 12.66 111.68 13 111 C13.33274748 108.31258015 13.61564929 105.63743407 13.86376953 102.94189453 C13.94355042 102.10922058 14.0233313 101.27654663 14.10552979 100.41864014 C14.36886348 97.6570808 14.62612901 94.89499738 14.8828125 92.1328125 C15.06298338 90.21709741 15.24331384 88.30139731 15.42379761 86.38571167 C15.80145175 82.36595905 16.17588797 78.34592142 16.54833984 74.32568359 C17.02632914 69.17104051 17.5141934 64.01738599 18.00473213 58.86392403 C18.38002369 54.90614882 18.74908291 50.94781078 19.11635971 46.98928452 C19.29363162 45.08886436 19.47307897 43.18864584 19.65472794 41.28863907 C19.90797192 38.63194583 20.15258418 35.97459287 20.39501953 33.31689453 C20.47184967 32.53025421 20.54867981 31.74361389 20.62783813 30.93313599 C20.9437054 27.3763246 21.11434409 24.40417833 20 21 C18.45483112 19.47770924 18.45483112 19.47770924 16.47265625 18.23828125 C15.76302734 17.75939453 15.05339844 17.28050781 14.32226562 16.78710938 C13.57654297 16.30048828 12.83082031 15.81386719 12.0625 15.3125 C10.9497168 14.56516602 10.9497168 14.56516602 9.81445312 13.80273438 C6.00517075 11.23493719 6.00517075 11.23493719 2 9 Z " fill="#010101" transform="translate(91,260)"/>
<path d="M0 0 C7.52190613 1.26474528 14.95292495 3.02792222 22 6 C22.495 6.99 22.495 6.99 23 8 C22.67 8.99 22.34 9.98 22 11 C24.31 11.66 26.62 12.32 29 13 C26.87232124 21.97456456 24.31398879 30.77643124 21.578125 39.58203125 C21.15048438 40.96700659 20.72314343 42.35207449 20.29608154 43.73722839 C19.17710734 47.3639757 18.05441263 50.98955993 16.93078613 54.61486816 C15.81121009 58.22894875 14.69467531 61.84396808 13.578125 65.45898438 C13.13806379 66.88369821 12.69800032 68.30841135 12.25793457 69.73312378 C12.04198135 70.43229794 11.82602814 71.13147209 11.60353088 71.85183334 C10.95766036 73.94235146 10.31133347 76.03272803 9.66491699 78.12307739 C6.07426733 89.7378852 2.52375904 101.36471614 -1 113 C-8.43359375 112.02734375 -8.43359375 112.02734375 -11.96484375 110.80859375 C-12.61904297 110.58623047 -13.27324219 110.36386719 -13.94726562 110.13476562 C-14.60404297 109.90466797 -15.26082031 109.67457031 -15.9375 109.4375 C-16.96327148 109.08655273 -16.96327148 109.08655273 -18.00976562 108.72851562 C-19.67508501 108.15788171 -21.33782493 107.57972902 -23 107 C-23 105.68 -23 104.36 -23 103 C-25.31 102.01 -27.62 101.02 -30 100 C-24.70600865 80.89409325 -18.8217332 61.9688958 -12.984375 43.02404785 C-10.87436489 36.17524204 -8.76725254 29.3255456 -6.66143227 22.47545052 C-5.93064989 20.09981769 -5.19845757 17.72462282 -4.46611023 15.34947205 C-4.02057191 13.90153448 -3.57507887 12.45358299 -3.12963867 11.00561523 C-2.74136398 9.74547104 -2.35308929 8.48532684 -1.95304871 7.18699646 C-1.23864908 4.79804293 -0.56983296 2.42619211 0 0 Z " fill="#010101" transform="translate(330,77)"/>
<path d="M0 0 C1.20970459 0.00523682 2.41940918 0.01047363 3.66577148 0.01586914 C4.97094727 0.0190918 6.27612305 0.02231445 7.62084961 0.02563477 C9.00952213 0.03399138 10.39819401 0.04245634 11.78686523 0.05102539 C13.17944179 0.05603873 14.57202005 0.06060193 15.96459961 0.06469727 C19.38456394 0.07653105 22.80444367 0.09301659 26.22436523 0.11352539 C34.83042389 26.72605351 43.36529167 53.35959085 51.650177 80.07394409 C52.40792952 82.5168705 53.16710525 84.95935592 53.92770386 87.40139771 C54.99074158 90.81708237 56.04797646 94.23450432 57.10327148 97.65258789 C57.42119659 98.67203995 57.7391217 99.691492 58.06668091 100.74183655 C58.35276215 101.67354172 58.63884338 102.60524689 58.93359375 103.56518555 C59.18432144 104.37573395 59.43504913 105.18628235 59.69337463 106.02139282 C60.22436523 108.11352539 60.22436523 108.11352539 60.22436523 111.11352539 C55.76604542 111.14244086 51.30774954 111.1602952 46.84936523 111.17602539 C45.57834961 111.1844043 44.30733398 111.1927832 42.99780273 111.20141602 C41.78608398 111.20463867 40.57436523 111.20786133 39.32592773 111.21118164 C37.64490967 111.21903687 37.64490967 111.21903687 35.92993164 111.22705078 C33.22436523 111.11352539 33.22436523 111.11352539 31.22436523 110.11352539 C30.31396484 107.73130798 30.31396484 107.73130798 29.37670898 104.52734375 C29.02294189 103.33197495 28.6691748 102.13660614 28.3046875 100.90501404 C27.92353661 99.58785986 27.54260133 98.27064328 27.16186523 96.95336914 C26.76658808 95.60614111 26.37066417 94.25910267 25.97412109 92.9122467 C24.92886342 89.35482598 23.89333489 85.79464015 22.85949707 82.23388672 C22.01967165 79.3475215 21.17290347 76.46321681 20.32572937 73.57900143 C19.31028301 70.12118581 18.29820261 66.66238846 17.28686523 63.20336914 C17.09591278 62.55075544 16.90496033 61.89814175 16.70822144 61.22575188 C14.75740253 54.54842202 12.8427306 47.87983896 11.22436523 41.11352539 C9.0528576 44.37078684 7.94949485 47.57926152 6.75561523 51.26196289 C6.51889099 51.97911469 6.28216675 52.69626648 6.03826904 53.43515015 C5.52845025 54.98075736 5.02060522 56.52701672 4.51452637 58.07385254 C3.18236045 62.14485114 1.83570357 66.21105147 0.48999023 70.27758789 C0.21805847 71.1004126 -0.05387329 71.9232373 -0.33404541 72.77099609 C-4.35881116 84.9274314 -8.57840232 97.01562011 -12.77563477 109.11352539 C-22.67563477 109.11352539 -32.57563477 109.11352539 -42.77563477 109.11352539 C-37.87648547 94.18370679 -32.66963626 79.40990968 -27.21313477 64.67602539 C-26.42648211 62.54526778 -25.64010926 60.41440685 -24.85400391 58.28344727 C-23.26676443 53.98166514 -21.67788441 49.68049369 -20.08813477 45.37963867 C-17.89003941 39.42891321 -15.70602348 33.4731009 -13.52563477 27.51586914 C-12.56035487 24.88191342 -11.59482279 22.24805032 -10.62918091 19.61422729 C-10.02065323 17.95301587 -9.41296069 16.29149828 -8.80612183 14.62966919 C-7.9742795 12.3525142 -7.13905839 10.07662724 -6.30297852 7.80102539 C-6.05906372 7.13058701 -5.81514893 6.46014862 -5.56384277 5.76939392 C-3.48977993 0.14273442 -3.48977993 0.14273442 0 0 Z M1.22436523 6.11352539 C0.20600586 8.93786133 -0.81235352 11.76219727 -1.86157227 14.67211914 C-3.29053467 18.63201652 -4.72048307 22.59155739 -6.15063477 26.55102539 C-6.52413055 27.58519592 -6.89762634 28.61936646 -7.28244019 29.68487549 C-14.19305824 48.81136621 -21.19087876 67.90512121 -28.23608398 86.98242188 C-28.60812454 87.991642 -28.9801651 89.00086212 -29.36347961 90.04066467 C-30.06277605 91.93760637 -30.76338712 93.83406411 -31.46549988 95.72996521 C-31.77159683 96.56085159 -32.07769379 97.39173798 -32.39306641 98.24780273 C-32.66155899 98.97430023 -32.93005157 99.70079773 -33.2066803 100.4493103 C-33.82955028 101.97809982 -33.82955028 101.97809982 -33.77563477 103.11352539 C-28.49563477 103.11352539 -23.21563477 103.11352539 -17.77563477 103.11352539 C-15.46371327 96.32259305 -13.1525511 89.53140291 -10.84204102 82.73999023 C-10.05871241 80.43783883 -9.27518943 78.13575355 -8.49145508 75.83374023 C-6.25388773 69.26124383 -4.01967934 62.68762636 -1.79168701 56.11187744 C-1.13932722 54.18677535 -0.48627061 52.26190917 0.16766357 50.33734131 C1.0023599 47.87841775 1.83285589 45.4181211 2.66186523 42.95727539 C2.89817657 42.26320587 3.13448792 41.56913635 3.37796021 40.85403442 C5.44230686 34.69711267 6.94256572 28.47754753 8.22436523 22.11352539 C10.20436523 21.78352539 12.18436523 21.45352539 14.22436523 21.11352539 C14.33635254 22.38446045 14.44833984 23.65539551 14.5637207 24.96484375 C15.16011351 30.2867969 16.40230863 35.32937693 17.79467773 40.49243164 C18.05685089 41.48014053 18.31902405 42.46784943 18.58914185 43.48548889 C21.87580128 55.73628099 25.48819272 67.89288941 29.09936523 80.05102539 C29.79501302 82.4031398 30.49032709 84.75535292 31.18530273 87.10766602 C32.86116527 92.77742539 34.5414686 98.44585009 36.22436523 104.11352539 C41.17436523 104.11352539 46.12436523 104.11352539 51.22436523 104.11352539 C49.74121701 95.65255164 47.31748092 87.63729552 44.68139648 79.47290039 C44.22972278 78.06031256 43.77853582 76.64756901 43.32780457 75.23468018 C42.14337966 71.52629437 40.95254852 67.81999761 39.76025391 64.11413574 C38.57199586 60.41722152 37.38957636 56.71844216 36.20678711 53.01977539 C34.38685037 47.33071807 32.56385355 41.64265187 30.73852539 35.95532227 C27.54840378 26.01400217 24.38530954 16.06416059 21.22436523 6.11352539 C14.62436523 6.11352539 8.02436523 6.11352539 1.22436523 6.11352539 Z " fill="#010101" transform="translate(232.775634765625,325.886474609375)"/>
<path d="M0 0 C6.36640684 0.84621917 12.51525455 3.04454848 18.5625 5.125 C19.38041016 5.40214844 20.19832031 5.67929687 21.04101562 5.96484375 C23.02876568 6.63905137 25.01459349 7.31892204 27 8 C25.34948674 16.177951 22.93774258 24.09184973 20.4921875 32.05859375 C20.0430978 33.53035343 19.59430235 35.00220292 19.14578247 36.47413635 C17.96493735 40.34643854 16.7799847 44.21747185 15.59417725 48.08825684 C14.41696648 51.93369879 13.24386089 55.78039227 12.0703125 59.62695312 C6.73953418 77.09262134 1.3796654 94.54932863 -4 112 C-8.10833883 112.93888686 -10.4775059 112.85353164 -14.51953125 111.56640625 C-16.0519043 111.0878418 -16.0519043 111.0878418 -17.61523438 110.59960938 C-18.67033203 110.25736328 -19.72542969 109.91511719 -20.8125 109.5625 C-21.88693359 109.22412109 -22.96136719 108.88574219 -24.06835938 108.53710938 C-26.71570895 107.70172351 -29.35917314 106.85573832 -32 106 C-30.59259945 97.73801956 -28.24363607 89.84735549 -25.74609375 81.859375 C-25.32163647 80.4883661 -24.89766181 79.11720769 -24.47413635 77.74591064 C-23.35905941 74.13942526 -22.23829858 70.53473331 -21.11602783 66.93048096 C-19.35063487 61.25730802 -17.59409204 55.58138463 -15.83684158 49.90568542 C-15.18538381 47.80265366 -14.53281255 45.69996944 -13.88021851 43.59729004 C-11.67648208 36.48736516 -9.50143019 29.36993145 -7.37548828 22.23632812 C-7.06096443 21.1817359 -7.06096443 21.1817359 -6.74008656 20.10583878 C-5.74059815 16.75130533 -4.74560716 13.39551999 -3.75694275 10.03778076 C-3.4079744 8.86161194 -3.05900604 7.68544312 -2.69946289 6.47363281 C-2.39408096 5.43684387 -2.08869904 4.40005493 -1.77406311 3.33184814 C-1 1 -1 1 0 0 Z M4 8 C-1.75255641 26.49987056 -7.48391268 45.0061525 -13.17011452 63.52653313 C-14.23732086 67.00249542 -15.30572575 70.4780802 -16.37670898 73.95288086 C-17.4399297 77.40256053 -18.5004529 80.85305818 -19.55898857 84.30417824 C-20.14882136 86.22480972 -20.74138396 88.14460219 -21.33399963 90.06437683 C-21.6853447 91.21190933 -22.03668976 92.35944183 -22.39868164 93.54174805 C-22.70906876 94.55126022 -23.01945587 95.5607724 -23.33924866 96.60087585 C-24.08850905 98.90662594 -24.08850905 98.90662594 -24 101 C-19.05 102.65 -14.1 104.3 -9 106 C-8.43603516 104.16711426 -7.87207031 102.33422852 -7.29101562 100.44580078 C-4.24348958 90.54134115 -1.19596354 80.63688151 1.8515625 70.73242188 C2.07238998 70.01471745 2.29321747 69.29701302 2.52073669 68.55755997 C2.96525194 67.11291593 3.40980151 65.66828244 3.85438538 64.22365952 C4.95768446 60.63846882 6.06039628 57.05309961 7.16186523 53.46734619 C9.04690287 47.33266084 10.93444719 41.19890993 12.84752655 35.07290077 C13.4258112 33.22084429 14.00229828 31.36822684 14.57873535 29.51559448 C15.2789465 27.26656182 15.98245779 25.01855302 16.68981934 22.77175903 C16.99649536 21.78472992 17.30317139 20.79770081 17.61914062 19.78076172 C18.02163025 18.49623611 18.02163025 18.49623611 18.43225098 17.1857605 C19.12570313 14.89244136 19.12570313 14.89244136 19 12 C17.06441401 11.32779649 15.12645628 10.66241923 13.1875 10 C12.10855469 9.62875 11.02960938 9.2575 9.91796875 8.875 C7.02879198 7.85638488 7.02879198 7.85638488 4 8 Z " fill="#010101" transform="translate(176,313)"/>
<path d="M0 0 C0.99 0 1.98 0 3 0 C3.86979461 2.22414609 4.72083184 4.45272592 5.5625 6.6875 C5.9327832 7.62625977 5.9327832 7.62625977 6.31054688 8.58398438 C7.78726262 12.55655773 8.00331694 14.93488913 7 19 C-0.08363758 21.33304669 -7.16829763 23.66295996 -14.25426769 25.98891354 C-17.54477336 27.06912271 -20.83492154 28.15039512 -24.12426758 29.23413086 C-27.90861915 30.48090297 -31.69449997 31.7229907 -35.48046875 32.96484375 C-37.2463459 33.54769386 -37.2463459 33.54769386 -39.04789734 34.14231873 C-40.14866104 34.50261673 -41.24942474 34.86291473 -42.38354492 35.23413086 C-43.34951096 35.55167831 -44.31547699 35.86922577 -45.31071472 36.19639587 C-48 37 -48 37 -50.67842102 37.47462463 C-55.11364618 38.47831999 -58.2720156 42.37443359 -61.57421875 45.359375 C-65.23717742 47.11358554 -65.62760289 47.21745079 -69.27734375 46.1796875 C-71.19507363 45.48043067 -73.10111826 44.74893 -75 44 C-76.33783851 43.50759565 -77.67705831 43.01893458 -79.01733398 42.53320312 C-83.64907766 40.84674717 -88.26247014 39.11319149 -92.875 37.375 C-95.26262476 36.47662847 -97.65060314 35.57924542 -100.0395813 34.68447876 C-101.51621374 34.13131107 -102.99206508 33.57605241 -104.4670105 33.0184021 C-107.61362535 31.83862903 -110.70807859 30.69944071 -114 30 C-116.02563885 35.46352007 -116.02563885 35.46352007 -115.20117188 41.03320312 C-113.82804381 43.06040135 -112.35046078 44.8970325 -110.75 46.75 C-110.20311523 47.42740234 -109.65623047 48.10480469 -109.09277344 48.80273438 C-107.96681944 50.19664847 -106.83033206 51.58211831 -105.68359375 52.95898438 C-103.1161918 56.07143802 -100.68967321 59.28725422 -98.25 62.5 C-96.83637149 64.33570214 -95.41810824 66.16775396 -94 68 C-97.39275439 71.46048633 -100.86671905 74.73949739 -104.5625 77.875 C-105.49191406 78.67679687 -106.42132813 79.47859375 -107.37890625 80.3046875 C-110 82 -110 82 -112.23046875 81.84765625 C-114.31272174 80.85019731 -115.55913018 79.80108727 -117 78 C-117 77.34 -117 76.68 -117 76 C-117.66 75.67 -118.32 75.34 -119 75 C-113.72 71.04 -108.44 67.08 -103 63 C-103.89938591 59.40245638 -104.24290972 58.36073412 -106.44140625 55.71484375 C-106.93954834 55.10737305 -107.43769043 54.49990234 -107.95092773 53.87402344 C-108.48274658 53.2349707 -109.01456543 52.59591797 -109.5625 51.9375 C-110.64918263 50.58783919 -111.7351161 49.23757486 -112.8203125 47.88671875 C-114.72833955 45.53233942 -116.67063208 43.22544303 -118.6796875 40.95703125 C-124.08671808 34.47420739 -124.08671808 34.47420739 -123.81640625 29.87890625 C-123.07887718 27.10876117 -122.20563844 24.59714613 -121 22 C-116.0548505 22.7313688 -111.62929081 24.5922423 -107.0078125 26.4140625 C-105.23335198 27.09968101 -103.45860324 27.78455397 -101.68359375 28.46875 C-98.90046475 29.54564652 -96.11951278 30.6271633 -93.34326172 31.72167969 C-90.65354313 32.77963249 -87.95662175 33.81705923 -85.2578125 34.8515625 C-84.4346756 35.18169342 -83.6115387 35.51182434 -82.76345825 35.85195923 C-77.78513582 37.73849824 -74.31607375 38.41851181 -69 37 C-65.97080887 34.81540908 -63.37931665 32.3790198 -60.6484375 29.8359375 C-59.77445312 29.23007813 -58.90046875 28.62421875 -58 28 C-57.26628174 28.17039795 -56.53256348 28.3407959 -55.77661133 28.51635742 C-51.97930706 29.17778886 -49.5575312 28.15376943 -45.92578125 26.90234375 C-45.24824295 26.67267914 -44.57070465 26.44301453 -43.87263489 26.20639038 C-41.68198785 25.4610824 -39.49744737 24.69933581 -37.3125 23.9375 C-35.81471126 23.42544365 -34.31649995 22.91462166 -32.81787109 22.4050293 C-29.18544472 21.16766725 -25.55716304 19.91867451 -21.93011475 18.66564941 C-17.66807407 17.19577573 -13.39758009 15.75137104 -9.125 14.3125 C-8.06792847 13.94789673 -8.06792847 13.94789673 -6.98950195 13.57592773 C-4.17945276 12.62399274 -1.99308191 12 1 12 C0.84402344 11.21753906 0.68804687 10.43507812 0.52734375 9.62890625 C0.33269531 8.61699219 0.13804687 7.60507813 -0.0625 6.5625 C-0.25972656 5.55316406 -0.45695312 4.54382813 -0.66015625 3.50390625 C-0.82837891 2.26447266 -0.82837891 2.26447266 -1 1 C-0.67 0.67 -0.34 0.34 0 0 Z " fill="#959595" transform="translate(216,160)"/>
<path d="M0 0 C2.97 0 5.94 0 9 0 C8.29407117 4.17427386 7.01680872 8.04876052 5.578125 12.015625 C5.19937477 13.07215271 5.19937477 13.07215271 4.81297302 14.15002441 C3.96247355 16.51807863 3.10640574 18.88407591 2.25 21.25 C1.64422065 22.93129116 1.03850967 24.61260696 0.43286133 26.29394531 C-6.33497742 45.04438265 -13.24575793 63.74306546 -20.15332031 82.44238281 C-20.59965317 83.65083862 -21.04598602 84.85929443 -21.50584412 86.10437012 C-22.35092496 88.3917495 -23.19649376 90.67894868 -24.0426178 92.96594238 C-24.41825363 93.98232788 -24.79388947 94.99871338 -25.1809082 96.04589844 C-25.50952347 96.93420349 -25.83813873 97.82250854 -26.17671204 98.73773193 C-26.81156166 100.48220058 -27.41295614 102.23886843 -28 104 C-36.58 104 -45.16 104 -54 104 C-54.33 101.69 -54.66 99.38 -55 97 C-48.4 97 -41.8 97 -35 97 C-34.67 95.35 -34.34 93.7 -34 92 C-33.40899286 90.14033428 -32.78170723 88.29200969 -32.12890625 86.453125 C-31.72816895 85.32173096 -31.32743164 84.19033691 -30.91455078 83.0246582 C-30.46415879 81.76633439 -30.01346453 80.50811874 -29.5625 79.25 C-29.3318988 78.6034848 -29.10129761 77.9569696 -28.8637085 77.29086304 C-23.86217076 63.26989261 -18.74515168 49.29048417 -13.625 35.3125 C-13.2352298 34.2462439 -12.84545959 33.17998779 -12.44387817 32.0814209 C-4.30380308 9.82909937 -4.30380308 9.82909937 0 0 Z " fill="#969696" transform="translate(303,74)"/>
<path d="M0 0 C4.31392226 0.4793247 6.16569547 1.7457985 9 5 C8.22398437 6.06734375 7.44796875 7.1346875 6.6484375 8.234375 C-1.1224763 18.94570035 -8.75178713 29.74882246 -16.32421875 40.60107422 C-27.69083455 56.87268944 -39.30699307 72.96185756 -51 89 C-54.23490384 88.38208688 -56.34204705 87.26739817 -59.00390625 85.34765625 C-59.74447266 84.81849609 -60.48503906 84.28933594 -61.24804688 83.74414062 C-62.01181641 83.18919922 -62.77558594 82.63425781 -63.5625 82.0625 C-65.08450802 80.9698746 -66.60663855 79.87741982 -68.12890625 78.78515625 C-68.79994385 78.29926025 -69.47098145 77.81336426 -70.16235352 77.31274414 C-71.75265671 76.17669255 -73.37384131 75.0841058 -75 74 C-74.67 73.01 -74.34 72.02 -74 71 C-72.53626953 72.10021484 -72.53626953 72.10021484 -71.04296875 73.22265625 C-69.75821187 74.16981279 -68.4730336 75.11639793 -67.1875 76.0625 C-66.54490234 76.54783203 -65.90230469 77.03316406 -65.24023438 77.53320312 C-63.54907099 78.76871627 -61.77779254 79.89276018 -60 81 C-56.72774588 79.90924863 -56.35826322 79.48511129 -54.50390625 76.78125 C-53.79911133 75.76708008 -53.79911133 75.76708008 -53.08007812 74.73242188 C-52.57927734 73.99572266 -52.07847656 73.25902344 -51.5625 72.5 C-50.48067187 70.93735936 -49.39863489 69.37486329 -48.31640625 67.8125 C-47.76484863 67.01070313 -47.21329102 66.20890625 -46.64501953 65.3828125 C-44.12618903 61.7342839 -41.5626176 58.11783794 -39 54.5 C-37.99841596 53.0822304 -36.99711472 51.66426096 -35.99609375 50.24609375 C-35.50093262 49.54468262 -35.00577148 48.84327148 -34.49560547 48.12060547 C-33.00705543 46.01000383 -31.52081245 43.89779562 -30.03515625 41.78515625 C-20.16302596 27.7558271 -10.10606971 13.86149743 0 0 Z " fill="#969696" transform="translate(466,153)"/>
<path d="M0 0 C2.31 0.66 4.62 1.32 7 2 C4.87232124 10.97456456 2.31398879 19.77643124 -0.421875 28.58203125 C-0.84951562 29.96700659 -1.27685657 31.35207449 -1.70391846 32.73722839 C-2.82289266 36.3639757 -3.94558737 39.98955993 -5.06921387 43.61486816 C-6.18878991 47.22894875 -7.30532469 50.84396808 -8.421875 54.45898438 C-8.86193621 55.88369821 -9.30199968 57.30841135 -9.74206543 58.73312378 C-9.95801865 59.43229794 -10.17397186 60.13147209 -10.39646912 60.85183334 C-11.04233964 62.94235146 -11.68866653 65.03272803 -12.33508301 67.12307739 C-15.92573267 78.7378852 -19.47624096 90.36471614 -23 102 C-30.43359375 101.02734375 -30.43359375 101.02734375 -33.96484375 99.80859375 C-34.61904297 99.58623047 -35.27324219 99.36386719 -35.94726562 99.13476562 C-36.60404297 98.90466797 -37.26082031 98.67457031 -37.9375 98.4375 C-38.96327148 98.08655273 -38.96327148 98.08655273 -40.00976562 97.72851562 C-41.67508501 97.15788171 -43.33782493 96.57972902 -45 96 C-44.67 94.35 -44.34 92.7 -44 91 C-42.22888156 91.47811177 -40.45811517 91.9575278 -38.6875 92.4375 C-37.70136719 92.70433594 -36.71523438 92.97117187 -35.69921875 93.24609375 C-33.78482474 93.78079425 -31.88566385 94.37144538 -30 95 C-29.74371826 93.75686035 -29.48743652 92.5137207 -29.22338867 91.23291016 C-27.94185034 85.47751693 -26.19454741 79.89472246 -24.42578125 74.2734375 C-23.70428271 71.9557017 -22.98378003 69.63765572 -22.26416016 67.31933594 C-21.89131897 66.11869507 -21.51847778 64.9180542 -21.13433838 63.68103027 C-19.25491027 57.58211667 -17.43165741 51.46658366 -15.60546875 45.3515625 C-14.87075632 42.90224966 -14.13572996 40.45303096 -13.40039062 38.00390625 C-12.2794058 34.27026951 -11.16102236 30.53594558 -10.05004883 26.79931641 C-8.95107096 23.10608831 -7.84177866 19.41609559 -6.73046875 15.7265625 C-6.23355782 14.04247787 -6.23355782 14.04247787 -5.72660828 12.32437134 C-5.41230362 11.28743134 -5.09799896 10.25049133 -4.77416992 9.18212891 C-4.50295822 8.27459869 -4.23174652 7.36706848 -3.95231628 6.43203735 C-2.96041901 3.89891757 -1.72905787 2.08629559 0 0 Z " fill="#949494" transform="translate(352,88)"/>
<path d="M0 0 C0.33 0 0.66 0 1 0 C1.12109311 7.07721931 0.85373239 13.97195301 0 21 C-0.66 21 -1.32 21 -2 21 C-2.40726318 22.10553223 -2.40726318 22.10553223 -2.82275391 23.23339844 C-3.94417332 25.86880382 -5.18262798 27.93787609 -6.8359375 30.265625 C-7.68188477 31.46493652 -7.68188477 31.46493652 -8.54492188 32.68847656 C-9.14884766 33.5337793 -9.75277344 34.37908203 -10.375 35.25 C-10.99697266 36.12881836 -11.61894531 37.00763672 -12.25976562 37.91308594 C-13.54325055 39.72602471 -14.82874484 41.53754255 -16.11621094 43.34765625 C-17.87962091 45.83050824 -19.63349946 48.31970299 -21.3828125 50.8125 C-22.4218173 52.2917072 -23.46087694 53.77087588 -24.5 55.25 C-24.96712402 55.91547852 -25.43424805 56.58095703 -25.91552734 57.26660156 C-29.1907522 61.91069945 -32.568837 66.47002652 -36 71 C-40.25177425 70.12297052 -43.27422975 67.93165162 -46.75 65.4375 C-47.65298828 64.80038086 -47.65298828 64.80038086 -48.57421875 64.15039062 C-50.05329714 63.10564478 -51.52717259 62.05353984 -53 61 C-52.67 60.01 -52.34 59.02 -52 58 C-51.52949219 58.37253906 -51.05898438 58.74507812 -50.57421875 59.12890625 C-49.95160156 59.60199219 -49.32898438 60.07507813 -48.6875 60.5625 C-47.76517578 61.27599609 -47.76517578 61.27599609 -46.82421875 62.00390625 C-46.22222656 62.33261719 -45.62023437 62.66132813 -45 63 C-41.05713003 61.68571001 -40.40717945 60.01160517 -38.125 56.5625 C-37.32363609 55.3684325 -36.52012704 54.17580276 -35.71484375 52.984375 C-35.28026855 52.34048828 -34.84569336 51.69660156 -34.39794922 51.03320312 C-31.90343096 47.40512977 -29.28527463 43.8669436 -26.6875 40.3125 C-17.71841699 27.96736215 -9.24158011 15.31817783 -1.42578125 2.2109375 C-0.95527344 1.48132813 -0.48476563 0.75171875 0 0 Z " fill="#949494" transform="translate(392,129)"/>
<path d="M0 0 C2.96175123 0.61277612 4.38058783 1.25372522 7 3 C7.11816103 5.74168979 7.04149365 8.22060501 6.81640625 10.94140625 C6.73042931 12.19069664 6.73042931 12.19069664 6.64271545 13.46522522 C6.51272405 15.3127227 6.37515148 17.15969749 6.23126221 19.00616455 C5.99112707 22.1148657 5.77692102 25.22464283 5.56591797 28.33544922 C5.17021967 34.03433472 4.71255185 39.72625743 4.2277832 45.41821289 C4.03331584 47.77586392 3.85245124 50.13467422 3.68481445 52.49438477 C1.83540207 78.34513939 1.83540207 78.34513939 -7 87 C-7.33 87 -7.66 87 -8 87 C-8.17621238 79.84577747 -7.48154458 72.86244445 -6.75 65.75 C-6.47513214 63.00924701 -6.20137964 60.26841083 -5.9296875 57.52734375 C-5.85658356 56.79198898 -5.78347961 56.05663422 -5.7081604 55.29899597 C-5.0845412 48.97462504 -4.50989713 42.64629318 -3.9453125 36.31640625 C-3.85644775 35.32275055 -3.76758301 34.32909485 -3.67602539 33.30532837 C-3.31978435 29.31690903 -2.96414324 25.32844933 -2.61413574 21.33947754 C-2.36787255 18.53466325 -2.11782498 15.73020752 -1.8671875 12.92578125 C-1.79436554 12.0822963 -1.72154358 11.23881134 -1.64651489 10.36976624 C-1.57608978 9.58814621 -1.50566467 8.80652618 -1.43310547 8.0012207 C-1.37331512 7.32195023 -1.31352478 6.64267975 -1.25192261 5.94282532 C-0.98781315 3.90601507 -0.53545648 1.9812788 0 0 Z " fill="#929292" transform="translate(415,116)"/>
<path d="M0 0 C2 1 2 1 3.2890625 4.2734375 C3.74216125 5.63806434 4.18713794 7.0054082 4.625 8.375 C4.96917969 9.40367188 4.96917969 9.40367188 5.3203125 10.453125 C6.28795001 13.413635 7 15.86608457 7 19 C-4.22 22.63 -15.44 26.26 -27 30 C-27 33.86089459 -26.36595623 36.48356052 -25.2421875 40.09765625 C-25 42 -25 42 -27 45 C-27.66 45 -28.32 45 -29 45 C-30.00990692 42.08666921 -31.00615952 39.16884681 -32 36.25 C-32.28617188 35.425 -32.57234375 34.6 -32.8671875 33.75 C-33.13789063 32.95078125 -33.40859375 32.1515625 -33.6875 31.328125 C-33.93886719 30.5949707 -34.19023437 29.86181641 -34.44921875 29.10644531 C-35 27 -35 27 -35 23 C-30.33818932 21.42960995 -25.67509043 19.86312992 -21.01074219 18.30029297 C-19.42346559 17.76784386 -17.83654931 17.23431935 -16.25 16.69970703 C-13.97228892 15.93240311 -11.69331907 15.16894888 -9.4140625 14.40625 C-8.70255035 14.16563843 -7.99103821 13.92502686 -7.25796509 13.67712402 C-2.22774341 12 -2.22774341 12 0 12 C-0.2165625 11.45730469 -0.433125 10.91460937 -0.65625 10.35546875 C-0.9346875 9.64003906 -1.213125 8.92460938 -1.5 8.1875 C-1.7784375 7.47980469 -2.056875 6.77210937 -2.34375 6.04296875 C-3 4 -3 4 -3 1 C-2.01 0.67 -1.02 0.34 0 0 Z " fill="#939393" transform="translate(191,78)"/>
<path d="M0 0 C0.99 0.33 1.98 0.66 3 1 C4.07494348 3.47473252 4.94567717 5.81449301 5.75 8.375 C6.09998047 9.40367188 6.09998047 9.40367188 6.45703125 10.453125 C8.13127309 15.60618073 8.13127309 15.60618073 7 19 C4.69262393 19.98131537 2.51023112 20.75884161 0.12109375 21.48046875 C-0.5655687 21.69818436 -1.25223114 21.91589996 -1.95970154 22.14021301 C-4.15722902 22.83408607 -6.35959429 23.51091894 -8.5625 24.1875 C-10.05178123 24.65448761 -11.54071873 25.12257294 -13.02929688 25.59179688 C-16.68232884 26.74064786 -20.33978854 27.87424261 -24 29 C-23.79141357 29.75128174 -23.58282715 30.50256348 -23.36791992 31.27661133 C-22.95956909 32.75810669 -22.95956909 32.75810669 -22.54296875 34.26953125 C-22.27250732 35.24768799 -22.0020459 36.22584473 -21.72338867 37.23364258 C-20.96382539 40.13833768 -20.40208391 43.02457905 -20 46 C-21.32 46.66 -22.64 47.32 -24 48 C-25.3381816 44.04328884 -26.669722 40.08437472 -28 36.125 C-28.3815625 34.99707031 -28.763125 33.86914062 -29.15625 32.70703125 C-29.5171875 31.63066406 -29.878125 30.55429688 -30.25 29.4453125 C-30.58515625 28.45031738 -30.9203125 27.45532227 -31.265625 26.43017578 C-32 24 -32 24 -32 22 C-27.78439669 20.57007953 -23.56685358 19.14608199 -19.34741211 17.72753906 C-17.91229357 17.24413754 -16.47771771 16.75912183 -15.04370117 16.27246094 C-12.98236386 15.57321879 -10.91914458 14.87980523 -8.85546875 14.1875 C-7.61434326 13.76855469 -6.37321777 13.34960938 -5.09448242 12.91796875 C-2 12 -2 12 1 12 C0.01 8.37 -0.98 4.74 -2 1 C-1.34 0.67 -0.68 0.34 0 0 Z " fill="#949494" transform="translate(200,118)"/>
<path d="M0 0 C4.11704694 0.72241198 7.30487372 2.02353711 11 4 C11 4.66 11 5.32 11 6 C7.86650268 7.04449911 7.01031744 6.93423645 4 6 C4.33 6.66 4.66 7.32 5 8 C5.33 8 5.66 8 6 8 C5.8661792 8.55977539 5.7323584 9.11955078 5.59448242 9.69628906 C4.77199735 14.1688753 4.5433065 17.08090468 7.17578125 20.921875 C8.19664666 22.21776808 9.24366892 23.49337548 10.3125 24.75 C10.85487305 25.42740234 11.39724609 26.10480469 11.95605469 26.80273438 C13.07214666 28.19573183 14.19770117 29.58119974 15.33251953 30.95898438 C17.88262565 34.08034413 20.31014391 37.29233192 22.75 40.5 C24.16379409 42.3355729 25.58189267 44.16775513 27 46 C23.60724561 49.46048633 20.13328095 52.73949739 16.4375 55.875 C15.04337891 57.07769531 15.04337891 57.07769531 13.62109375 58.3046875 C11 60 11 60 8.76953125 59.84765625 C6.68727826 58.85019731 5.44086982 57.80108727 4 56 C4 55.34 4 54.68 4 54 C3.34 53.67 2.68 53.34 2 53 C7.28 49.04 12.56 45.08 18 41 C17.10061409 37.40245638 16.75709028 36.36073412 14.55859375 33.71484375 C14.06045166 33.10737305 13.56230957 32.49990234 13.04907227 31.87402344 C12.51725342 31.2349707 11.98543457 30.59591797 11.4375 29.9375 C10.35081737 28.58783919 9.2648839 27.23757486 8.1796875 25.88671875 C6.27166045 23.53233942 4.32936792 21.22544303 2.3203125 18.95703125 C-3.08671808 12.47420739 -3.08671808 12.47420739 -2.81640625 7.87890625 C-2.07887718 5.10876117 -1.20563844 2.59714613 0 0 Z " fill="#969696" transform="translate(95,182)"/>
<path d="M0 0 C0.12059047 18.03291283 -0.0424916 35.98559993 -1 54 C-6.875 53.125 -6.875 53.125 -8 52 C-8.09319449 50.4651703 -8.117458 48.92607918 -8.11352539 47.38842773 C-8.11344986 46.40748642 -8.11337433 45.4265451 -8.11329651 44.4158783 C-8.10813522 43.3492244 -8.10297394 42.2825705 -8.09765625 41.18359375 C-8.0962413 40.0974025 -8.09482635 39.01121124 -8.09336853 37.8921051 C-8.08775048 34.40720925 -8.07519492 30.92237658 -8.0625 27.4375 C-8.05748733 25.08138113 -8.05292402 22.72526126 -8.04882812 20.36914062 C-8.03777519 14.57940536 -8.02101951 8.78970719 -8 3 C-2 0 -2 0 0 0 Z " fill="#8B8B8B" transform="translate(107,109)"/>
<path d="M0 0 C1.65 0 3.3 0 5 0 C7.48427127 7.91543213 9.92022771 15.84532218 12.32788086 23.78436279 C12.79221666 25.3150433 13.25726862 26.84550668 13.72290039 28.37579346 C15.26839825 33.45889525 16.79619782 38.54686909 18.30477905 43.64105225 C18.80814006 45.33268096 19.31643032 47.02285107 19.82974243 48.71148682 C20.55758676 51.10985313 21.26707307 53.51297348 21.97265625 55.91796875 C22.1930658 56.63062393 22.41347534 57.34327911 22.64056396 58.07752991 C24.37374197 64.10426251 23.66179108 69.06503187 22 75 C21.34 75 20.68 75 20 75 C19.74347656 73.84371094 19.48695313 72.68742187 19.22265625 71.49609375 C16.69293764 60.37011136 13.76348334 49.38648832 10.5625 38.4375 C10.36875793 37.77479095 10.17501587 37.11208191 9.97540283 36.42929077 C8.04338267 29.83537937 6.0817954 23.25068324 4.0859375 16.67578125 C3.80419678 15.74644775 3.52245605 14.81711426 3.23217773 13.85961914 C2.71802576 12.1712104 2.19959045 10.48409754 1.67602539 8.79858398 C0.7456079 5.76011106 0 3.19774074 0 0 Z " fill="#949494" transform="translate(235,73)"/>
<path d="M0 0 C4.11704694 0.72241198 7.30487372 2.02353711 11 4 C11 4.66 11 5.32 11 6 C7.86650268 7.04449911 7.01031744 6.93423645 4 6 C4.33 6.66 4.66 7.32 5 8 C5.33 8 5.66 8 6 8 C5.86255371 8.5554248 5.72510742 9.11084961 5.58349609 9.68310547 C4.93090259 13.14675832 4.48051373 15.84974664 5.96191406 19.12988281 C7.41929545 21.23043744 8.96852557 23.17778179 10.625 25.125 C11.70113411 26.46044354 12.77666043 27.79637709 13.8515625 29.1328125 C14.37782227 29.7712207 14.90408203 30.40962891 15.44628906 31.06738281 C17.76672841 33.95371184 19.87925462 36.96473245 22 40 C20.515 40.495 20.515 40.495 19 41 C18.64679688 40.35804688 18.29359375 39.71609375 17.9296875 39.0546875 C15.27476129 34.85195005 12.20394999 31.02329635 9.125 27.125 C7.30166603 24.8103255 5.48247058 22.49342514 3.68139648 20.16137695 C2.60919912 18.78310437 1.51672767 17.42020583 0.39868164 16.07885742 C-1.8937008 13.20479625 -3.03541909 11.65154657 -2.83203125 7.91015625 C-2.49558594 6.97042969 -2.15914063 6.03070313 -1.8125 5.0625 C-1.48894531 4.10472656 -1.16539063 3.14695313 -0.83203125 2.16015625 C-0.55746094 1.44730469 -0.28289062 0.73445312 0 0 Z " fill="#919191" transform="translate(95,182)"/>
<path d="M0 0 C0.99 0 1.98 0 3 0 C3.70510428 2.1818892 4.38832408 4.37085693 5.0625 6.5625 C5.44535156 7.78066406 5.82820313 8.99882812 6.22265625 10.25390625 C7.3034423 15.46231743 6.41653611 19.94094246 5 25 C4.34 25 3.68 25 3 25 C2.10211461 21.58892894 1.23575688 18.17061196 0.375 14.75 C0.11976563 13.78191406 -0.13546875 12.81382812 -0.3984375 11.81640625 C-0.74648437 10.41455078 -0.74648437 10.41455078 -1.1015625 8.984375 C-1.32150879 8.12553711 -1.54145508 7.26669922 -1.76806641 6.38183594 C-2.03938845 3.59550139 -1.46421626 2.34085059 0 0 Z " fill="#909090" transform="translate(252,123)"/>
<path d="M0 0 C0.50789063 0.38414062 1.01578125 0.76828125 1.5390625 1.1640625 C3.65654545 2.64709363 5.6401619 3.93849576 8 5 C11.43542211 4.49812911 11.43542211 4.49812911 14 3 C15.4216319 6.3171411 16.39009109 9.44219804 17 13 C12.7921712 12.39590577 9.65752005 9.9915414 6.25 7.625 C5.64800781 7.22539062 5.04601562 6.82578125 4.42578125 6.4140625 C2.8917535 5.35659213 1.43813431 4.1845904 0 3 C0 2.01 0 1.02 0 0 Z " fill="#969696" transform="translate(339,187)"/>
<path d="M0 0 C0.99 0 1.98 0 3 0 C4.65805746 1.85884974 6.10682428 3.67851389 7.5625 5.6875 C8.44463611 6.87680408 9.32747022 8.06559069 10.2109375 9.25390625 C10.6656543 9.87023926 11.12037109 10.48657227 11.58886719 11.12158203 C12.99632301 12.9951054 14.44487422 14.82694383 15.9140625 16.65234375 C16.37868896 17.2347583 16.84331543 17.81717285 17.32202148 18.41723633 C18.22073709 19.54123341 19.12635197 20.65975424 20.03930664 21.7722168 C21.26171875 23.3203125 21.26171875 23.3203125 23 26 C22.67 26.99 22.34 27.98 22 29 C14.21873747 19.6551268 6.68487831 10.17002836 0 0 Z " fill="#676767" transform="translate(56,146)"/>
<path d="M0 0 C4.80299698 2.60162336 8.98905571 5.44496002 13.203125 8.92578125 C13.79609375 9.28027344 14.3890625 9.63476562 15 10 C18.99996286 8.66667905 19.83782337 6.5042173 22 3 C22.99 4.485 22.99 4.485 24 6 C22.7934375 7.11375 22.7934375 7.11375 21.5625 8.25 C19.1039839 10.88840752 18.6181353 11.67485839 18 15 C14.31824522 12.68974881 10.65304995 10.35538475 7 8 C6.24460937 7.51402344 5.48921875 7.02804688 4.7109375 6.52734375 C3.08334017 5.43223197 1.53184547 4.22547638 0 3 C0 2.01 0 1.02 0 0 Z " fill="#8D8D8D" transform="translate(391,224)"/>
<path d="M0 0 C4.2600521 1.53835215 6.4064204 4.73687855 9 8.25 C9.42539063 8.81074219 9.85078125 9.37148437 10.2890625 9.94921875 C12.99788428 13.54713234 15.53378069 17.23216495 18 21 C17.01 21.33 16.02 21.66 15 22 C14.63261719 21.34515625 14.26523438 20.6903125 13.88671875 20.015625 C11.42339102 16.07838068 8.6291754 12.43921443 5.8125 8.75 C4.71267828 7.30894179 3.61490172 5.86631957 2.51953125 4.421875 C2.03589111 3.78862305 1.55225098 3.15537109 1.05395508 2.50292969 C0 1 0 1 0 0 Z " fill="#737373" transform="translate(99,201)"/>
<path d="M0 0 C2 1 2 1 2.703125 2.7421875 C2.88359375 3.44601563 3.0640625 4.14984375 3.25 4.875 C3.44078125 5.57367188 3.6315625 6.27234375 3.828125 6.9921875 C4 9 4 9 2 12 C1.34 12 0.68 12 0 12 C-0.66 9.03 -1.32 6.06 -2 3 C-1.34 3 -0.68 3 0 3 C0 2.01 0 1.02 0 0 Z " fill="#8E8E8E" transform="translate(162,111)"/>
<path d="M0 0 C2.3129482 2.3129482 2.49580975 3.47904875 3.125 6.625 C3.29257813 7.44226563 3.46015625 8.25953125 3.6328125 9.1015625 C3.81457031 10.04128906 3.81457031 10.04128906 4 11 C2.02 11.99 2.02 11.99 0 13 C-1.125 6.25 -1.125 6.25 0 4 C0 2.68 0 1.36 0 0 Z " fill="#8B8B8B" transform="translate(176,153)"/>
<path d="M0 0 C0.66 0 1.32 0 2 0 C2 0.99 2 1.98 2 3 C2.99 3.33 3.98 3.66 5 4 C5 4.66 5 5.32 5 6 C0.545 5.01 0.545 5.01 -4 4 C-4.33 4.66 -4.66 5.32 -5 6 C-5.99 5.34 -6.98 4.68 -8 4 C-7.67 3.01 -7.34 2.02 -7 1 C-4.69 1.33 -2.38 1.66 0 2 C0 1.34 0 0.68 0 0 Z " fill="#9D9D9D" transform="translate(106,186)"/>
<path d="M0 0 C4.81033104 2.54664585 8.32442148 4.99027798 12 9 C8.43041489 9 7.2511948 8.13243327 4.3125 6.1875 C3.50425781 5.66542969 2.69601562 5.14335937 1.86328125 4.60546875 C1.24839844 4.07566406 0.63351562 3.54585937 0 3 C0 2.01 0 1.02 0 0 Z " fill="#7D7D7D" transform="translate(391,224)"/>
<path d="M0 0 C0.33 0 0.66 0 1 0 C0 7.42857143 0 7.42857143 -1 11 C-1.66 11 -2.32 11 -3 11 C-3.33 8.69 -3.66 6.38 -4 4 C-2.68 3.67 -1.36 3.34 0 3 C0 2.01 0 1.02 0 0 Z " fill="#838383" transform="translate(258,137)"/>
<path d="M0 0 C3.3 1.98 6.6 3.96 10 6 C9.01 6.66 8.02 7.32 7 8 C5.82512964 7.24172908 4.66027408 6.46792245 3.5 5.6875 C2.52546875 5.04361328 2.52546875 5.04361328 1.53125 4.38671875 C1.0259375 3.92910156 0.520625 3.47148437 0 3 C0 2.01 0 1.02 0 0 Z " fill="#7D7D7D" transform="translate(339,187)"/>
<path d="M0 0 C5.13623978 4.95912807 5.13623978 4.95912807 7 8 C6.67 8.99 6.34 9.98 6 11 C4.98805294 9.92781799 3.99081943 8.84173622 3 7.75 C2.443125 7.14671875 1.88625 6.5434375 1.3125 5.921875 C0 4 0 4 0 0 Z " fill="#3B3B3B" transform="translate(72,164)"/>
<path d="M0 0 C0.99 0.33 1.98 0.66 3 1 C3.33 2.65 3.66 4.3 4 6 C2.35 5.67 0.7 5.34 -1 5 C-0.67 3.35 -0.34 1.7 0 0 Z " fill="#8D8D8D" transform="translate(308,179)"/>
<path d="M0 0 C3.82946843 1.45255699 5.12050295 3.42895561 7 7 C6.01 7.33 5.02 7.66 4 8 C2.3372974 5.32521756 1.00016187 3.0004856 0 0 Z " fill="#6D6D6D" transform="translate(110,215)"/>
<path d="M0 0 C3.16115776 1.36983503 3.9927092 1.9890638 6 5 C5.67 5.99 5.34 6.98 5 8 C0 2.25 0 2.25 0 0 Z " fill="#5E5E5E" transform="translate(66,158)"/>
</svg>
